OpenSim_Sub09_CSBaseline_LCS.mot
version=1
nRows=63
nColumns=11
inDegrees=no
endheader
time	Bot_Shank	2nd_Bot_Shank	2nd_Top_Shank	Top_Shank	Bot_Thigh	Med_Thigh	Top_Thigh	BNOx	BNOy	BNOZ
14.60000000	10398.74664677	10427.59525285	11231.72642379	10854.02888383	12982.09908006	14140.99308099	14751.29177591	201.50733158	-72.22072901	182.57257933
14.61000000	10396.84768193	10425.72209402	11231.53852229	10849.45558987	12973.18276347	14140.34331692	14765.50806323	200.89647861	-72.24730847	194.45523283
14.62000000	10395.12023628	10423.73851033	11231.39090317	10843.98572306	12970.48728119	14141.38214622	14783.28119996	200.28722902	-72.27802542	205.30214006
14.63000000	10393.85115823	10422.17066426	11231.30236720	10838.00468299	12973.39873170	14143.72174362	14803.47290232	199.67583545	-72.31431571	213.40864253
14.64000000	10393.32729622	10421.54471827	11231.29171515	10831.89786921	12981.30321345	14146.97428388	14824.94488650	199.05855055	-72.35761518	217.07008175
14.65000000	10393.83549867	10422.38683482	11231.37774780	10826.05068130	12993.58682492	14150.75194172	14846.55886870	198.43162697	-72.40935969	214.58179921
14.66000000	10395.66261401	10425.22317638	11231.57926593	10820.84851881	13009.63566458	14154.66689189	14867.17656512	197.79131736	-72.47098509	204.23913643
14.67000000	10399.09549065	10430.57990540	11231.91507031	10816.67678133	13028.83583088	14158.33130913	14885.65969196	197.13387437	-72.54392721	184.33743490
14.68000000	10404.36537490	10438.87213098	11232.39381661	10813.86610553	13050.56500870	14161.45317656	14901.02224267	196.45568466	-72.62911885	153.56445864
14.69000000	10411.29257854	10449.69420829	11232.94918183	10812.34239612	13074.13870122	14164.44856117	14913.40363478	195.75412540	-72.72377483	113.50821921
14.70000000	10419.51323127	10462.27262817	11233.48123731	10811.85015572	13098.84454159	14168.05089520	14923.44770422	195.02701767	-72.82344357	67.05662769
14.71000000	10428.66259404	10475.83214627	11233.88989587	10812.13303131	13123.97003149	14172.99510791	14931.80066625	194.27218468	-72.92366564	17.10372679
14.72000000	10438.37592778	10489.59751822	11234.07507033	10812.93466984	13148.80267260	14180.01612856	14939.10873615	193.48744962	-73.01998159	-33.45644081
14.73000000	10448.28849342	10502.79349965	11233.93667351	10813.99871829	13172.62996662	14189.84888641	14946.01812916	192.67063567	-73.10793198	-81.72983241
14.74000000	10458.03555190	10514.64484622	11233.37461824	10815.06882361	13194.73941523	14203.22831071	14953.17506056	191.81956603	-73.18305739	-124.82240531
14.75000000	10467.25236414	10524.37631355	11232.28881733	10815.88863277	13214.41852012	14220.88933074	14961.22574561	190.93206389	-73.24089837	-159.84011682
14.76000000	10475.61824326	10531.32317408	11230.61556915	10816.23074137	13231.04494298	14243.40674455	14970.76483210	190.00674866	-73.27757076	-184.27292643
14.77000000	10483.13807549	10535.63748845	11228.56008402	10816.08169342	13244.66268425	14270.17188076	14982.00585206	189.04812429	-73.29344209	-198.44880973
14.78000000	10489.96266991	10537.83740421	11226.44809938	10815.52392528	13255.61439942	14300.04563344	14994.99152029	188.06333219	-73.29078551	-203.96774954
14.79000000	10496.24352391	10538.44279572	11224.60592120	10814.64032561	13264.24415267	14331.88639460	15009.76374582	187.05952622	-73.27188314	-202.43572873
14.80000000	10502.13213487	10537.97353734	11223.35985544	10813.51378309	13270.89600824	14364.55255627	15026.36443773	186.04386024	-73.23901713	-195.45873015
14.81000000	10507.78000018	10536.94950343	11223.03620807	10812.22718638	13275.91403033	14396.90251047	15044.83550505	185.02348810	-73.19446960	-184.64273666
14.82000000	10513.33861723	10535.89056837	11223.96128506	10810.86342415	13279.64228316	14427.79464922	15065.21885686	184.00556366	-73.14052268	-171.59373112
14.83000000	10518.95948341	10535.31660650	11226.46139238	10809.50538508	13282.42483093	14456.08736456	15087.55640219	182.99724078	-73.07945852	-157.91769637
14.84000000	10524.79409611	10535.74749221	11230.86283600	10808.23595783	13284.60573786	14480.63904848	15111.89005011	182.00567331	-73.01355924	-145.22061529
14.85000000	10530.94598074	10537.61159004	11237.38434885	10807.07738213	13286.50759817	14500.45035679	15138.16669275	181.03614810	-72.94382341	-134.94008434
14.86000000	10537.16411990	10540.66094993	11245.44963202	10805.60366416	13288.29432939	14515.57336337	15165.63098787	180.08015372	-72.86176323	-127.26921941
14.87000000	10543.03858901	10544.34449559	11254.12605094	10803.18791048	13290.05872970	14526.53139081	15193.21284967	179.12299426	-72.75463908	-121.84335651
14.88000000	10548.15871396	10548.10972088	11262.47929021	10799.20228000	13291.89326179	14533.84998458	15219.84070774	178.14994466	-72.60969129	-118.29520060
14.89000000	10552.11382061	10551.40411969	11269.57503446	10793.01893165	13293.89038838	14538.05469014	15244.44299166	177.14627986	-72.41416019	-116.25745666
14.90000000	10554.49323485	10553.67518587	11274.47896828	10784.01002434	13296.14257217	14539.67105296	15265.94813100	176.09727480	-72.15528611	-115.36282964
14.91000000	10554.88628254	10554.37041329	11276.25677629	10771.54771700	13298.74227586	14539.22461851	15283.28455534	174.98820440	-71.82030937	-115.24402452
14.92000000	10552.88228957	10552.93729584	11273.97414310	10755.00416855	13301.78196216	14537.24093224	15295.38069426	173.80434362	-71.39647031	-115.53374626
14.93000000	10548.07058180	10548.82332736	11266.69675331	10733.75153792	13305.35409377	14534.24553963	15301.16497733	172.53096737	-70.87100924	-115.86469984
14.94000000	10540.04048512	10541.47600175	11253.49029152	10707.16198401	13309.55113340	14530.76398614	15299.56583414	171.15335061	-70.23116651	-115.86959021
14.95000000	10528.38132539	10530.34281286	11233.42044236	10674.60766575	13314.46554376	14527.32181724	15289.51169427	169.65676826	-69.46418243	-115.18112235
14.96000000	10512.88584986	10515.09854750	11206.00969067	10635.94896857	13320.15231711	14524.38290877	15270.34339580	168.03265362	-68.56118037	-113.51091628
14.97000000	10494.44706693	10496.64736985	11173.25125288	10593.68698732	13326.46377639	14522.07757923	15243.63240343	166.30574922	-67.53428621	-110.99742621
14.98000000	10474.32827329	10476.30718580	11137.96985971	10551.21153640	13333.18403705	14520.42388981	15211.70088980	164.51200765	-66.40269410	-107.92275555
14.99000000	10453.79304467	10455.39621306	11102.99086850	10511.91309996	13340.09716311	14519.43981710	15176.87159329	162.68738995	-65.18560355	-104.56911599
15	10434.10495679	10435.23266932	11071.13963658	10479.18216215	13346.98721863	14519.14333768	15141.46725227	160.86785717	-63.90221406	-101.21871921
15.01000000	10416.52758537	10417.13477228	11045.24152128	10456.40920711	13353.63826763	14519.55242815	15107.81060510	159.08937036	-62.57172512	-98.15377687
15.02000000	10402.32450612	10402.42073964	11028.12187995	10446.98471899	13359.83437416	14520.68506509	15078.22439015	157.38789055	-61.21333622	-95.65650068
15.03000000	10392.58610617	10392.23032528	11022.18685862	10453.74615103	13365.36481358	14522.53565478	15054.74630510	155.79636640	-59.84738241	-93.96469800
15.04000000	10387.12280049	10386.38432390	11026.74436993	10475.44371249	13370.05737633	14524.92440406	15037.30741887	154.32548310	-58.50259108	-92.98800082
15.05000000	10385.17131677	10384.11236880	11039.71368914	10508.99569777	13373.75711537	14527.59344308	15024.89460310	152.97594729	-57.21145113	-92.48895191
15.06000000	10385.96567664	10384.64130479	11059.00754132	10551.31176017	13376.30916511	14530.28453373	15016.49027567	151.74841854	-56.00646918	-92.22940022
15.07000000	10388.73990172	10387.19797665	11082.53865154	10599.30155299	13377.55865995	14532.73943786	15011.07685446	150.64355641	-54.92015187	-91.97119471
15.08000000	10392.72801362	10391.00922920	11108.21974488	10649.87472952	13377.35073429	14534.69991735	15007.63675737	149.66202048	-53.98500582	-91.47618433
15.09000000	10397.16403398	10395.30190724	11133.96354643	10699.94094306	13375.53052252	14535.90773408	15005.15240228	148.80447032	-53.23353765	-90.50621803
15.10000000	10401.28198440	10399.30285556	11157.68278124	10746.40984690	13371.94315907	14536.10464990	15002.60620708	148.07156548	-52.69825400	-88.82314478
15.11000000	10404.39458096	10402.31830305	11177.51082003	10786.50590015	13366.49201236	14535.07620093	14999.10018154	147.46396802	-52.40779921	-86.24537067
15.12000000	10406.39614078	10404.24117653	11193.21174259	10819.78017353	13359.51083687	14532.93144224	14994.62019432	146.98235810	-52.36227287	-83.00929451
15.13000000	10407.44165635	10405.22736258	11205.28051738	10846.82653198	13351.52628734	14529.92443105	14989.54826222	146.62742408	-52.54898072	-79.53866066
15.14000000	10407.68734973	10405.43398817	11214.21556043	10868.24375926	13343.06592840	14526.30990856	14984.26827067	146.39985432	-52.95516816	-76.25809719
15.15000000	10407.28944299	10405.01818026	11220.51528777	10884.63063918	13334.65732471	14522.34261597	14979.16410510	146.30033719	-53.56808061	-73.59223215
15.16000000	10406.40415821	10404.13706579	11224.67811543	10896.58595550	13326.82804092	14518.27729448	14974.61965093	146.32956107	-54.37496345	-71.96569362
15.17000000	10405.18771745	10402.94777174	11227.20245945	10904.70849200	13320.10564168	14514.36868529	14971.01879360	146.48821433	-55.36306210	-71.80310966
15.18000000	10403.79634278	10401.60742506	11228.58673587	10909.59703247	13315.01769163	14510.87152960	14968.74541853	146.77698535	-56.51962194	-73.52910834
15.19000000	10402.38625628	10400.27315271	11229.32936071	10911.85036068	13312.09175543	14508.04056860	14968.18341116	147.19656249	-57.83188839	-77.56831772
15.20000000	10401.11368001	10399.10208165	11229.92875001	10912.06726042	13311.85539772	14506.13054350	14969.71665691	147.74763414	-59.28710685	-84.34536587
15.21000000	10400.11199849	10398.22729741	11230.79230140	10910.78987588	13314.64258037	14505.27419409	14973.56190941	148.43271456	-60.86989553	-94.07279491
15.22000000	10399.39107285	10397.65185076	11231.83511407	10908.25400028	13319.74011060	14504.94438152	14979.03194322	149.26419397	-62.55066281	-105.81602091
